<svg version="1.0" xmlns="http://www.w3.org/2000/svg" viewBox="0 0 455 455"><g stroke-width="0"><path d="M164 160.9c-4.8 2-6.7 5.1-3 5.1 2 0 2 .3 1.8 16.7-.2 12.9-.6 16.7-1.7 17.1-.9.3-1.1-.2-.6-1.7.5-1.7.2-2.1-1.4-2.1-1.1 0-2.3.4-2.6 1-1.7 2.8-2.5.1-2.5-9v-10h3c2.3 0 3-.4 3-2 0-1.5-.7-2-2.9-2-2.8 0-3-.3-3.3-4.2-.4-5.3-1.9-5.8-4.1-1.4-.9 1.9-3 4.5-4.7 5.7-3.6 2.7-3.8 3.7-.7 4.1 2.1.3 2.2.8 2.7 11.6.5 12 1 13.2 5.8 13.2 1.3 0 3.2-.5 4.3-1 1.3-.7 1.9-.7 1.9 0 0 .6 5.5 1 15.5 1 12.5 0 15.5-.3 15.5-1.4 0-.7-.9-1.6-2-1.9-1.8-.5-2-1.4-2-10.4 0-7.4-.4-10.4-1.6-12.1-2.5-3.5-5.9-4.4-10.1-2.7-1.9.8-3.7 1.5-3.9 1.5-.2 0-.4-3.8-.4-8.5s-.3-8.5-.7-8.4c-.5 0-2.8.8-5.3 1.8zm13.9 19.5c.8.9 1.1 4.6.9 10.3l-.3 8.8h-8l-.3-8.5c-.3-7.7-.1-8.7 1.9-10.3 2.6-2.1 4.3-2.2 5.8-.3zm21.6-6c-5.6 2.5-7.9 6-8.3 13-.5 7.5 1.3 11.7 6.1 14.7 6.3 3.9 15.7 0 17.3-7.3.9-4.4-1.1-5.7-3-1.9-2.9 5.4-9.3 5.3-12.7-.2-3.7-6.1-3-6.7 7.1-6.7h9v-2.8c0-3.7-2.5-7.1-6.6-8.8-4.1-1.7-5.1-1.7-8.9 0zm6.3 4.8c2.4 2.4 1.3 3.8-3.1 3.8-5.3 0-6.2-.8-4-3.2 1.8-2.1 5.3-2.4 7.1-.6zM38 204c0 1.5.7 2 2.5 2H43l-.2 17.2c-.3 17.1-.3 17.3-2.5 17.6-1.3.2-2.3 1-2.3 1.8 0 2.2 24.5 2 30-.2 7.3-2.9 9.6-12.3 4.1-17.2l-2.8-2.7 2-2.7c3-4 2.6-9.3-.8-12.8-3.5-3.7-9.6-5-22.5-5-9.3 0-10 .1-10 2zm25 5c2.5 2.5 2.6 7.2.3 9.3-1 .8-3.4 1.6-5.3 1.8-7.1.4-7 .5-7-6.6V207h5c3.7 0 5.5.5 7 2zm.4 18.1c3.2 2.5 3.6 7.7.8 10.2-2.3 2.1-7.3 3.1-10.7 2.3-2.4-.6-2.5-1-2.5-7.6v-7h4.9c3.4 0 5.6.6 7.5 2.1zm51.2-18.2c-.9 1.6-2.9 4-4.6 5.4-3.5 3-3.9 4.7-1 4.7 1.9 0 2 .7 2 9.7 0 11.8 1.2 14.7 5.9 15.1 3.5.4 8.1-2.8 8.1-5.5 0-1.6-2.2-1.7-3.8-.1-2.4 2.4-3.3-.7-3-9.8l.3-8.9h9l.5 11.3c.5 12.2 1 13.2 6.3 13.2 2.8 0 7.7-3.8 7.7-6 0-1.3-3.7-1.3-4.5 0-1.7 2.8-2.5.1-2.5-9v-10h3c2.3 0 3-.4 3-2 0-1.5-.7-2-2.9-2-2.8 0-3-.3-3.3-4.2-.4-5-2.1-5.9-3.7-1.9-2.1 4.8-5.1 6.9-9.3 6.4-3.7-.5-3.8-.6-3.8-4.9 0-5.1-1.3-5.6-3.4-1.5zM89.2 215c-12.5 2.9-14.3 22.9-2.6 28.5 9.4 4.4 19.4-3.1 19.4-14.5 0-9.6-7.7-16.1-16.8-14zm7.5 7.2c1 2 1.7 5.7 1.7 9.1.1 4.9-.3 6.2-2.1 7.7-4.7 3.7-9.1-.5-10-9.6-.7-6.8 1.3-10.4 5.7-10.4 2.3 0 3.3.7 4.7 3.2z"/><path d="M152.2 215c-12.5 2.9-14.3 22.9-2.6 28.5 9.4 4.4 19.4-3.1 19.4-14.5 0-9.6-7.7-16.1-16.8-14zm7.5 7.2c1 2 1.7 5.7 1.7 9.1.1 4.9-.3 6.2-2.1 7.7-4.7 3.7-9.1-.5-10-9.6-.7-6.8 1.3-10.4 5.7-10.4 2.3 0 3.3.7 4.7 3.2zm15.3-6.3c-5 2.1-6.2 4-3.1 4.8 1.9.5 2.1 1.2 2.1 10 0 8.6-.2 9.5-2 10-1.1.3-2 1.2-2 1.9 0 1.2 4.2 1.4 24 1.4s24-.2 24-1.4c0-.7-.9-1.6-2-1.9-1.8-.5-2-1.4-2-9.1 0-8.5-1.5-14.6-4-16.1-2.1-1.3-7.7-.7-10.4 1-2.4 1.6-2.8 1.6-4.4.3-2.9-2.6-6-3-9.4-1.4-3.9 2-4.8 2-4.8.1s-.4-1.8-6 .4zm15 6.1c.6 1.1 1 5.7.8 10.3l-.3 8.2-3.9.3c-2.4.2-4.2-.2-4.7-1-.5-.7-.9-4.8-.9-9 0-6.8.3-7.9 2.2-9.2 3-2.2 5.5-2 6.8.4zm16 0c.6 1.1 1 5.7.8 10.3l-.3 8.2h-8l-.3-9.1c-.3-8.6-.2-9.1 2-10.2 3.4-1.6 4.6-1.4 5.8.8z"/></g><path d="M42.4 223.5c0 7.7.2 10.7.3 6.7.2-4 .2-10.3 0-14-.2-3.7-.3-.4-.3 7.3z" fill-opacity=".06"/><path d="M162.4 182c0 7.4.1 10.5.3 6.7.2-3.7.2-9.7 0-13.5-.2-3.7-.3-.6-.3 6.8z" fill-opacity=".08"/><g fill="#337FCC" stroke-width="0"><path d="M253.9 178.7c-3.4 8.9-22.9 63.8-22.9 64.5 0 .5 2.7.8 6.1.6l6.1-.3 3.1-8.5 3.2-8.5h22l3 8.5 3 8.5 6.3.3c3.4.2 6.2-.1 6.2-.5s-5.4-15.7-11.9-33.8l-11.8-33-5.7-.3c-5.3-.3-5.7-.2-6.7 2.5zm10 26.2c1.7 4.7 3.1 8.8 3.1 9.3 0 .4-2.9.8-6.5.8s-6.5-.4-6.5-.8c0-1.8 6.1-18.5 6.5-18 .2.2 1.7 4.1 3.4 8.7z"/><path d="M292.7 195.7c-.4.3-.7 13.8-.7 30V255H38v10h123.8c68.2 0 128 .3 133 .6l9.2.7v-25.2l3.8 1.6c10.3 4.4 22.2.4 27.1-9.2 2.2-4.2 2.6-6.3 2.6-14 0-7.8-.3-9.6-2.5-13.4-1.4-2.4-4.2-5.8-6.3-7.5-3.2-2.6-4.8-3.1-10.6-3.4-5.4-.3-7.6 0-10.9 1.7-5 2.6-4.8 2.6-5.5.1-.4-1.6-1.4-2-4.4-2-2.2 0-4.3.3-4.6.7zm26.7 10.3c4.7 1.7 6.7 6.5 6.4 14.7-.3 6.3-.7 7.7-2.9 9.9-3.6 3.5-9.4 4.2-13.7 1.5-4-2.6-5.2-5.5-5.2-12.7 0-6.8 2.1-11.1 6.3-12.9 3.9-1.7 5.8-1.8 9.1-.5zm24.1-9.7c-.3.6-.4 16.5-.3 35.2l.3 34 5.8.3 5.7.3v-25l3.8 1.6c10.3 4.4 22.2.4 27.1-9.2 2.2-4.2 2.6-6.3 2.6-14 0-7.8-.3-9.6-2.5-13.4-1.4-2.4-4.2-5.8-6.3-7.5-3.2-2.6-4.8-3.1-10.6-3.4-5.4-.3-7.6 0-10.9 1.7-5 2.6-4.8 2.6-5.5.1-.4-1.6-1.4-2-4.6-2-2.4 0-4.4.5-4.6 1.3zm26.9 9.7c4.7 1.7 6.7 6.5 6.4 14.7-.3 6.3-.7 7.7-2.9 9.9-3.6 3.5-9.4 4.2-13.7 1.5-4-2.6-5.2-5.5-5.2-12.7 0-6.8 2.1-11.1 6.3-12.9 3.9-1.7 5.8-1.8 9.1-.5z"/></g><path d="M291.4 225.5c0 16.5.2 23.4.3 15.3.2-8.1.2-21.6 0-30-.1-8.4-.3-1.8-.3 14.7zm51.1 5c0 19.2.1 27 .2 17.2.2-9.8.2-25.6 0-35-.1-9.5-.3-1.5-.2 17.8z" fill="#496DB6" fill-opacity=".03"/><path d="M167.3 203.7c4.3.2 11 .2 15 0 4-.1.5-.3-7.8-.3-8.2 0-11.5.2-7.2.3z" fill-opacity=".18"/><path d="M101.3 265.7c35.1.2 92.3.2 127 0 34.8-.1 6.1-.2-63.8-.2-69.8 0-98.3.1-63.2.2z" fill="#3679C3" fill-opacity=".3"/><path d="M304.4 253.5c0 6.6.1 9.2.3 5.7.2-3.4.2-8.8 0-12-.2-3.1-.3-.3-.3 6.3zm51 0c0 6.6.1 9.2.3 5.7.2-3.4.2-8.8 0-12-.2-3.1-.3-.3-.3 6.3z" fill="#3A75C5" fill-opacity=".14"/></svg>